<svg xmlns="http://www.w3.org/2000/svg" width="53.622" height="33.96" viewBox="0 0 53.622 33.96">
  <g id="iconfinder_37-behance_104465" transform="translate(0 0)">
    <path id="Path_52" data-name="Path 52" d="M25.144,31.089s5.073-.378,5.073-6.327-4.151-8.856-9.409-8.856H3.5V49.161h17.3s10.563.333,10.563-9.816C31.37,39.345,31.832,31.089,25.144,31.089ZM11.128,21.817h9.679s2.353,0,2.353,3.459-1.385,3.963-2.953,3.963h-9.08V21.817Zm9.19,21.434c-.256.006-.473,0-.618,0H11.128V34.365h9.68s3.506-.046,3.506,4.565C24.313,42.821,21.695,43.221,20.318,43.251Z" transform="translate(-3.503 -15.906)" fill="#fff"/>
    <path id="Path_53" data-name="Path 53" d="M43.32,23.746c-12.788,0-12.778,12.778-12.778,12.778S29.667,49.235,43.32,49.235c0,0,11.38.65,11.38-8.844H48.847s.194,3.576-5.332,3.576c0,0-5.851.39-5.851-5.788H54.895S56.78,23.746,43.32,23.746Zm-5.723,10s.714-5.126,5.851-5.126,5.071,5.126,5.071,5.126Z" transform="translate(-1.363 -15.285)" fill="#fff"/>
    <rect id="Rectangle_54" data-name="Rectangle 54" width="13.718" height="4.096" transform="translate(34.804 1.959)" fill="#fff"/>
  </g>
</svg>
