<svg id="Layer_2" data-name="Layer 2" xmlns="http://www.w3.org/2000/svg" width="35.892" height="35.865" viewBox="0 0 35.892 35.865">
  <g id="Icon" transform="translate(0 0)">
    <path id="Path_54" data-name="Path 54" d="M17.45,13.3A47.8,47.8,0,0,1,23.5,23.116a17.684,17.684,0,0,0,3.734-11.471A16.176,16.176,0,0,0,17.45,13.3Z" transform="translate(8.65 5.675)" fill="#fff"/>
    <path id="Path_55" data-name="Path 55" d="M.33,17.209A17.923,17.923,0,0,0,14.086,30.651a19.417,19.417,0,0,1,7.378-17.162C19.747,11.533,18.851,10.681,18,9.86A19.312,19.312,0,0,1,.33,17.209Z" transform="translate(0.199 4.876)" fill="#fff"/>
    <path id="Path_56" data-name="Path 56" d="M5.07,3.274a51.917,51.917,0,0,1,9.962,6.811A16.176,16.176,0,0,0,16.526.033,17.744,17.744,0,0,0,5.07,3.274Z" transform="translate(2.539 0.006)" fill="#fff"/>
    <path id="Path_57" data-name="Path 57" d="M.012,17.217a16.325,16.325,0,0,0,15.952-6.348A48.557,48.557,0,0,0,5.09,3.61,17.774,17.774,0,0,0,.012,17.217Z" transform="translate(0.024 1.791)" fill="#fff"/>
    <path id="Path_58" data-name="Path 58" d="M11.645,29.04a17.8,17.8,0,0,0,12.561-4.645,45,45,0,0,0-6.363-10.6,16.3,16.3,0,0,0-6.2,15.25Z" transform="translate(5.702 6.816)" fill="#fff"/>
    <path id="Path_59" data-name="Path 59" d="M13.28,11.99a49.378,49.378,0,0,1,4.287,4.481A19.417,19.417,0,0,1,28.9,14.1,17.923,17.923,0,0,0,15.461.34,19.133,19.133,0,0,1,13.28,11.99Z" transform="translate(6.591 0.177)" fill="#fff"/>
  </g>
</svg>
