<svg xmlns="http://www.w3.org/2000/svg" width="29.767" height="35.886" viewBox="0 0 29.767 35.886">
  <path id="Cat" d="M22.509,35.886H12.944s.013-2.837,0-4.785C6.4,32.51,4.571,27.512,4.571,27.512a14.8,14.8,0,0,0-2.392-3.589c-2.392-1.421,0-1.2,0-1.2A4.425,4.425,0,0,1,5.767,25.12a5.678,5.678,0,0,0,7.177,2.392,5.863,5.863,0,0,1,1.2-3.589c-5.225-.589-9.574-3.589-9.574-9.57s1.2-7.177,2.4-8.373A7.408,7.408,0,0,1,7,0s2.351,0,4.743,3.589c1.185-1.185,4.785-1.2,5.982-1.2s4.794.011,5.98,1.2C26.1,0,28.453,0,28.453,0a7.407,7.407,0,0,1,.037,5.981c1.2,1.2,2.392,2.392,2.392,8.373s-4.345,8.981-9.57,9.57a6.48,6.48,0,0,1,1.2,3.589Z" transform="translate(-1.115)" fill="#fff" fill-rule="evenodd"/>
</svg>
