<svg xmlns="http://www.w3.org/2000/svg" width="35.778" height="35.651" viewBox="0 0 35.778 35.651">
  <g id="iconfinder_social-linkedin_216394" transform="translate(0 0)">
    <g id="Group_39" data-name="Group 39" transform="translate(0.127 10.186)">
      <path id="Path_48" data-name="Path 48" d="M12.639,34.465H5V9h7.639Zm28.011,0H33.011v-13.6c0-3.545-1.263-5.309-3.766-5.309a3.763,3.763,0,0,0-3.873,2.967V34.465H17.732s.1-22.918,0-25.465h6.03l.466,5.093h.158a8.5,8.5,0,0,1,7.5-4.273,7.908,7.908,0,0,1,6.333,2.549c1.622,1.826,2.429,4.276,2.429,7.716Z" transform="translate(-5 -9)" fill="#fff"/>
    </g>
    <g id="Group_40" data-name="Group 40" transform="translate(0 0)">
      <ellipse id="Ellipse_1" data-name="Ellipse 1" cx="3.947" cy="3.82" rx="3.947" ry="3.82" fill="#fff"/>
    </g>
  </g>
</svg>
